<svg width="1516" height="947" viewBox="0 0 1516 947" fill="none" xmlns="http://www.w3.org/2000/svg">
<g clip-path="url(#clip0)">
<path d="M2239.87 -11H-2218.39V1476.41H2239.87V-11Z" fill="url(#paint0_linear)"/>
<path opacity="0.12" d="M-1966.79 152.138C-1729.52 258.48 -1714.65 318.716 -1608.95 320.947C-1399.63 325.111 -1294.37 140.09 -1187.78 193.633C-1096.35 239.591 -1123.11 401.559 -1001.65 446.773C-966.417 459.861 -935.792 456.886 -882.124 486.93C-826.969 517.866 -828.753 538.242 -785.789 563.526C-710.266 607.848 -675.181 562.039 -575.873 596.991C-496.932 624.803 -501.243 660.201 -423.045 679.982C-384.986 689.65 -372.35 684.295 -329.237 682.808C-306.64 679.238 -287.313 680.577 -272.298 683.403C-167.192 702.589 -117.834 818.153 -111.293 834.364C-80.9658 881.958 -50.4895 929.552 -20.1616 977.146C-15.1069 992.762 11.3555 1070.1 90.8916 1108.03C132.369 1127.81 171.022 1128.55 192.43 1127.36C185.592 1174.66 180.686 1227.61 179.496 1285.32C178.604 1326.81 179.794 1365.63 182.172 1401.62C-618.243 1426.61 -1418.66 1451.6 -2219.07 1476.58C-2219.07 1003.02 -2219.07 529.616 -2219.07 56.0576C-2161.09 74.3515 -2071.89 104.99 -1966.79 152.138Z" fill="url(#paint1_linear)"/>
<path opacity="0.35" d="M-1832.24 242.714C-1704.69 344 -1687.74 415.986 -1593.34 431.305C-1409.29 461.2 -1283.07 248.218 -1172.17 303.991C-1080.74 349.949 -1107.5 511.917 -986.041 557.131C-950.807 570.219 -920.182 567.244 -866.513 597.288C-811.359 628.224 -813.143 648.6 -770.178 673.884C-694.656 718.206 -659.571 672.397 -560.262 707.349C-481.321 735.161 -485.632 770.559 -407.434 790.34C-369.376 800.008 -356.74 794.653 -313.626 793.166C-313.626 793.166 -298.463 792.125 -256.688 793.761C-165.853 797.182 -45.5828 908.432 -45.5828 908.432C78.2556 1022.95 164.185 1160.38 208.041 1237.57C201.202 1285.46 196.296 1338.26 195.107 1395.52C194.512 1423.63 194.81 1450.55 195.85 1476.29C-609.173 1476.29 -1414.05 1476.29 -2219.07 1476.29C-2219.07 1002.73 -2219.07 529.318 -2219.07 55.7603C-2102.07 85.3576 -1962.92 139.049 -1832.24 242.714Z" fill="url(#paint2_linear)"/>
<path opacity="0.12" d="M2077.66 -10.8708C2073.94 79.8548 2055.21 185.156 1985.19 222.041C1856.89 289.714 1663.77 70.6335 1552.27 143.66C1466.79 199.732 1511.69 357.535 1396.32 416.432C1362.87 433.536 1332.1 433.982 1282.15 469.975C1230.86 507.009 1235.02 527.087 1195.18 557.131C1125.31 609.782 1085.17 568.286 990.466 614.392C915.241 651.129 923.566 685.634 848.193 714.339C811.473 728.32 798.39 724.304 755.277 727.874C755.277 727.874 740.113 728.617 698.636 735.013C608.842 748.696 502.1 873.035 502.1 873.035C392.087 1001.09 322.512 1147.29 287.724 1229.1C297.982 1280.85 308.389 1332.76 318.647 1384.52C324.296 1415.75 329.797 1447.13 335.446 1478.37C970.396 1345.25 1605.2 1212.29 2240.15 1079.32C2240.45 715.975 2240.74 352.478 2241.04 -10.8708C2186.63 -10.8708 2132.07 -10.8708 2077.66 -10.8708Z" fill="url(#paint3_linear)"/>
<path opacity="0.35" d="M2137.12 214.753C2078.84 315.89 2103.37 371.961 2063.83 399.328C1971.81 463.133 1767.99 209.101 1642.66 272.014C1551.23 317.972 1577.99 479.94 1456.53 525.154C1421.3 538.242 1390.67 535.267 1337 565.311C1281.85 596.247 1283.63 616.623 1240.67 641.907C1165.15 686.229 1130.06 640.42 1030.75 675.372C951.812 703.184 956.123 738.582 877.925 758.363C839.867 768.031 827.23 762.676 784.117 761.189C784.117 761.189 768.953 760.148 727.029 761.784C636.195 765.205 515.924 876.455 515.924 876.455C392.086 990.978 306.158 1128.4 262.301 1205.6C266.613 1258.25 270.924 1310.9 275.235 1363.55C277.168 1395.23 279.249 1426.91 281.182 1458.74C934.269 1464.68 1587.36 1470.48 2240.3 1476.43C2240.3 1015.52 2240.3 554.751 2240.3 93.8352C2212.79 116.591 2171.02 155.856 2137.12 214.753Z" fill="url(#paint4_linear)"/>
<path opacity="0.5" d="M-2218.92 0.878906H2241.04V961.232H-2218.92V0.878906Z" fill="url(#paint5_linear)"/>
<path d="M-2049.89 299.827C-1868.52 394.866 -1687.29 490.054 -1505.92 585.092C-1452.11 535.565 -1398.29 486.187 -1344.62 436.659C-1252.3 506.86 -1159.98 576.912 -1067.66 647.113L-1026.33 641.759L-1002.39 626.142L-624.337 778.145L-523.245 729.807L-314.37 848.94L246.396 960.191C-578.25 961.381 -1402.9 962.719 -2227.4 963.909C-2224.42 790.638 -2221.45 617.516 -2218.63 444.245C-2162.58 396.205 -2106.23 348.016 -2049.89 299.827Z" fill="url(#paint6_linear)"/>
<path d="M-2422 599.37C-2298.01 499.572 -2174.03 399.625 -2049.89 299.827C-2081.11 336.117 -2112.18 372.408 -2143.4 408.698L-2009.75 428.628L-2076.8 592.677L-1746.91 647.262L-1641.36 710.472L-1450.32 475.924L-1344.47 436.808L-1416.58 525.005L-1311.62 632.686L-1274.01 722.668L-1002.24 626.291L-744.31 785.878L-523.245 729.956L-578.697 793.464L-513.432 832.877H-245.686C-245.686 832.877 -86.1682 923.603 -64.6116 932.081C-43.0552 940.558 246.397 960.339 246.397 960.339C-635.041 961.678 -1516.48 963.016 -2397.92 964.355C-2406.09 842.693 -2414.12 721.032 -2422 599.37Z" fill="url(#paint7_linear)"/>
<path d="M2386.88 464.621C2300.8 504.778 2214.88 544.935 2128.8 585.241C2074.98 535.714 2021.16 486.335 1967.5 436.808C1875.17 507.009 1782.85 577.061 1690.53 647.262L1649.2 641.907L1625.27 626.291L1247.21 778.293L1146.12 729.956L937.244 849.089L376.775 960.339C1032.24 960.637 1687.71 960.934 2343.32 961.232C2368.89 915.869 2408.59 831.688 2418.7 718.355C2428.66 604.279 2404.13 513.702 2386.88 464.621Z" fill="url(#paint8_linear)"/>
<path d="M2366.96 829.457C2268.99 711.662 2171.17 593.719 2073.2 475.924L1967.35 436.808L2039.45 525.005L1934.49 632.686L1896.88 722.668L1625.12 626.291L1367.19 785.879L1146.12 729.956L1201.57 793.464L1136.31 832.878H868.562C868.562 832.878 709.043 923.603 687.487 932.081C665.93 940.558 376.479 960.34 376.479 960.34C1025.4 960.637 1674.33 960.786 2323.11 961.083C2337.97 917.208 2352.54 873.332 2366.96 829.457Z" fill="url(#paint9_linear)"/>
</g>
<defs>
<linearGradient id="paint0_linear" x1="10.7878" y1="-356.546" x2="10.7878" y2="1458.06" gradientUnits="userSpaceOnUse">
<stop stop-color="#0E2754"/>
<stop offset="0.5434" stop-color="#0A1D43"/>
<stop offset="1" stop-color="#061232"/>
</linearGradient>
<linearGradient id="paint1_linear" x1="-1076.73" y1="1505.66" x2="-939.681" y2="-326.067" gradientUnits="userSpaceOnUse">
<stop stop-color="#0F2855"/>
<stop offset="0.1833" stop-color="#112C58"/>
<stop offset="0.358" stop-color="#173761"/>
<stop offset="0.5292" stop-color="#224A70"/>
<stop offset="0.6974" stop-color="#316584"/>
<stop offset="0.7484" stop-color="#366F8C"/>
<stop offset="0.9193" stop-color="#4AAA9F"/>
</linearGradient>
<linearGradient id="paint2_linear" x1="-1067.15" y1="1506.38" x2="-930.093" y2="-325.35" gradientUnits="userSpaceOnUse">
<stop offset="0.2617" stop-color="#060516"/>
<stop offset="0.4343" stop-color="#0A0719"/>
<stop offset="0.5986" stop-color="#150F23"/>
<stop offset="0.7278" stop-color="#241830"/>
</linearGradient>
<linearGradient id="paint3_linear" x1="1383.69" y1="1231.79" x2="1106.89" y2="-213.692" gradientUnits="userSpaceOnUse">
<stop stop-color="#0F2855"/>
<stop offset="0.1833" stop-color="#112C58"/>
<stop offset="0.358" stop-color="#173761"/>
<stop offset="0.5292" stop-color="#224A70"/>
<stop offset="0.6974" stop-color="#316584"/>
<stop offset="0.7484" stop-color="#366F8C"/>
<stop offset="0.9193" stop-color="#4AAA9F"/>
</linearGradient>
<linearGradient id="paint4_linear" x1="1314.42" y1="1490.97" x2="1181.02" y2="-291.947" gradientUnits="userSpaceOnUse">
<stop offset="0.2617" stop-color="#060516"/>
<stop offset="0.4343" stop-color="#0A0719"/>
<stop offset="0.5986" stop-color="#150F23"/>
<stop offset="0.7278" stop-color="#241830"/>
</linearGradient>
<linearGradient id="paint5_linear" x1="11.0587" y1="0.888722" x2="11.0587" y2="961.261" gradientUnits="userSpaceOnUse">
<stop offset="0.00460123" stop-color="#8412E6" stop-opacity="0.0155775"/>
<stop offset="0.1336" stop-color="#9A0FC4" stop-opacity="0.0915877"/>
<stop offset="0.3175" stop-color="#B80B98" stop-opacity="0.2"/>
<stop offset="0.4066" stop-color="#A52699" stop-opacity="0.3044"/>
<stop offset="0.6082" stop-color="#7E5F9C" stop-opacity="0.5407"/>
<stop offset="0.7815" stop-color="#62889D" stop-opacity="0.7439"/>
<stop offset="0.9177" stop-color="#50A19F" stop-opacity="0.9035"/>
<stop offset="1" stop-color="#4AAA9F"/>
</linearGradient>
<linearGradient id="paint6_linear" x1="-1335.14" y1="1761.86" x2="-488.175" y2="-809.101" gradientUnits="userSpaceOnUse">
<stop offset="0.3219" stop-color="#0B081B"/>
<stop offset="0.3942" stop-color="#0F122A" stop-opacity="0.8635"/>
<stop offset="0.5344" stop-color="#192C53" stop-opacity="0.599"/>
<stop offset="0.7263" stop-color="#295693" stop-opacity="0.2367"/>
<stop offset="0.8518" stop-color="#3474C1" stop-opacity="0"/>
</linearGradient>
<linearGradient id="paint7_linear" x1="-2422" y1="632.09" x2="246.085" y2="632.09" gradientUnits="userSpaceOnUse">
<stop offset="0.2617" stop-color="#060516"/>
<stop offset="0.4393" stop-color="#0A071A"/>
<stop offset="0.4647" stop-color="#0B081B"/>
<stop offset="0.5914" stop-color="#140E23"/>
<stop offset="0.7278" stop-color="#241830"/>
</linearGradient>
<linearGradient id="paint8_linear" x1="1668.3" y1="1582.76" x2="997.152" y2="-454.5" gradientUnits="userSpaceOnUse">
<stop offset="0.3219" stop-color="#0B081B"/>
<stop offset="0.3942" stop-color="#0F122A" stop-opacity="0.8635"/>
<stop offset="0.5344" stop-color="#192C53" stop-opacity="0.599"/>
<stop offset="0.7263" stop-color="#295693" stop-opacity="0.2367"/>
<stop offset="0.8518" stop-color="#3474C1" stop-opacity="0"/>
</linearGradient>
<linearGradient id="paint9_linear" x1="2367.01" y1="698.904" x2="376.727" y2="698.904" gradientUnits="userSpaceOnUse">
<stop offset="0.2617" stop-color="#060516"/>
<stop offset="0.4393" stop-color="#0A071A"/>
<stop offset="0.4647" stop-color="#0B081B"/>
<stop offset="0.5914" stop-color="#140E23"/>
<stop offset="0.7278" stop-color="#241830"/>
</linearGradient>
<clipPath id="clip0">
<rect width="1516" height="947" fill="white"/>
</clipPath>
</defs>
</svg>
