<svg width="74" height="51" viewBox="0 0 74 51" fill="none" xmlns="http://www.w3.org/2000/svg">
<g clip-path="url(#clip0)">
<path d="M74.0001 50.9977H27.2579C29.7715 46.8982 32.6826 41.7039 34.3095 37.1775C35.8838 32.8026 35.6599 28.8087 33.6423 25.3129C31.4761 21.5555 27.587 19.1568 24.1709 17.6832L25.5693 15.7575L36.9989 0L55.6697 25.7307L74.0001 50.9977Z" fill="url(#paint0_linear)"/>
<path d="M29.2481 35.3482C29.191 35.5111 29.1293 35.6718 29.0676 35.8348C25.6035 45.0161 16.7742 51.0023 7.01041 51.0023H0L20.9055 22.1821C23.9035 23.3298 27.3835 25.2257 28.9968 28.0306C30.1895 30.1102 30.2741 32.5019 29.2481 35.3482Z" fill="url(#paint1_linear)"/>
<path d="M29.5292 50.9977H27.2579C29.7715 46.8982 32.6826 41.7039 34.3095 37.1775C35.8838 32.8026 35.6599 28.8087 33.6423 25.3129C31.4761 21.5555 27.587 19.1568 24.1709 17.6832L25.5693 15.7575L36.9989 0C36.9989 0 50.06 29.4927 29.5292 50.9977Z" fill="url(#paint2_linear)"/>
<path d="M36.8024 33.847C35.3035 41.8026 32.8219 44.4308 29.5292 51H27.2579C29.7715 46.9005 32.6826 41.7062 34.3095 37.1798C35.8838 32.8049 35.6599 28.811 33.6423 25.3152C31.4761 21.5578 27.587 19.1592 24.1709 17.6855C27.9115 18.8217 38.763 23.4331 36.8024 33.847Z" fill="url(#paint3_linear)"/>
<path d="M37.6315 14.3343L41.2236 13.6962L37.6041 13.2096L36.9689 9.60132L36.4822 13.2371L32.8901 13.8752L36.5096 14.3641L37.1448 17.9724L37.6315 14.3343Z" fill="white"/>
<path d="M45.6841 23.1989L47.5213 22.8707L45.6704 22.6228L45.346 20.7773L45.0969 22.6366L43.2598 22.9625L45.1106 23.2127L45.4351 25.0581L45.6841 23.1989Z" fill="white"/>
<path d="M43.6003 33.2341L46.0887 32.7911L43.5797 32.4537L43.1387 29.9541L42.8028 32.4744L40.3145 32.9151L42.8234 33.2525L43.2621 35.7521L43.6003 33.2341Z" fill="white"/>
<path d="M73.9997 50.9977H29.5288C29.5288 50.9977 50.8685 44.3895 55.6693 25.7307L73.9997 50.9977Z" fill="url(#paint4_linear)"/>
<path d="M54.189 37.134L56.0262 36.808L54.1753 36.5579L53.8486 34.7124L53.6018 36.5716L51.7646 36.8976L53.6155 37.1478L53.94 38.9932L54.189 37.134Z" fill="white"/>
<path d="M29.2481 35.3481C29.191 35.5087 29.1293 35.6717 29.0676 35.8347C25.6058 45.016 16.7743 51.0022 7.01043 51.0022H0.635254C14.0368 50.9196 23.3071 43.6113 26.0743 36.5921C29.9588 26.7061 20.9056 22.1843 20.9056 22.1843C23.9035 23.332 27.3836 25.2256 28.9945 28.0305C30.1896 30.1101 30.2718 32.5018 29.2481 35.3481Z" fill="url(#paint5_linear)"/>
<path d="M50.4094 28.4666C50.581 28.4666 50.7202 28.3268 50.7202 28.1544C50.7202 27.982 50.581 27.8423 50.4094 27.8423C50.2378 27.8423 50.0986 27.982 50.0986 28.1544C50.0986 28.3268 50.2378 28.4666 50.4094 28.4666Z" fill="white"/>
<path d="M40.3142 41.2723C40.4858 41.2723 40.625 41.1325 40.625 40.9601C40.625 40.7877 40.4858 40.6479 40.3142 40.6479C40.1426 40.6479 40.0034 40.7877 40.0034 40.9601C40.0034 41.1325 40.1426 41.2723 40.3142 41.2723Z" fill="white"/>
<path d="M50.7199 45.032C50.8916 45.032 51.0307 44.8923 51.0307 44.7199C51.0307 44.5475 50.8916 44.4077 50.7199 44.4077C50.5483 44.4077 50.4092 44.5475 50.4092 44.7199C50.4092 44.8923 50.5483 45.032 50.7199 45.032Z" fill="white"/>
<path d="M63.8752 43.7811C64.0469 43.7811 64.186 43.6413 64.186 43.4689C64.186 43.2965 64.0469 43.1567 63.8752 43.1567C63.7036 43.1567 63.5645 43.2965 63.5645 43.4689C63.5645 43.6413 63.7036 43.7811 63.8752 43.7811Z" fill="white"/>
<path d="M46.4289 35.0245C46.6006 35.0245 46.7397 34.8847 46.7397 34.7123C46.7397 34.5399 46.6006 34.4001 46.4289 34.4001C46.2573 34.4001 46.1182 34.5399 46.1182 34.7123C46.1182 34.8847 46.2573 35.0245 46.4289 35.0245Z" fill="white"/>
<path d="M56.3366 34.6527C56.5083 34.6527 56.6474 34.5129 56.6474 34.3405C56.6474 34.1681 56.5083 34.0283 56.3366 34.0283C56.165 34.0283 56.0259 34.1681 56.0259 34.3405C56.0259 34.5129 56.165 34.6527 56.3366 34.6527Z" fill="white"/>
<path d="M49.0866 21.4017C49.2583 21.4017 49.3974 21.2619 49.3974 21.0895C49.3974 20.9171 49.2583 20.7773 49.0866 20.7773C48.915 20.7773 48.7759 20.9171 48.7759 21.0895C48.7759 21.2619 48.915 21.4017 49.0866 21.4017Z" fill="white"/>
<path d="M42.2155 17.9954C42.3872 17.9954 42.5263 17.8557 42.5263 17.6833C42.5263 17.5109 42.3872 17.3711 42.2155 17.3711C42.0439 17.3711 41.9048 17.5109 41.9048 17.6833C41.9048 17.8557 42.0439 17.9954 42.2155 17.9954Z" fill="white"/>
<path d="M40.3142 7.91876C40.4858 7.91876 40.625 7.779 40.625 7.6066C40.625 7.43419 40.4858 7.29443 40.3142 7.29443C40.1426 7.29443 40.0034 7.43419 40.0034 7.6066C40.0034 7.779 40.1426 7.91876 40.3142 7.91876Z" fill="white"/>
<path d="M33.2009 19.8179C33.3725 19.8179 33.5117 19.6782 33.5117 19.5058C33.5117 19.3334 33.3725 19.1936 33.2009 19.1936C33.0293 19.1936 32.8901 19.3334 32.8901 19.5058C32.8901 19.6782 33.0293 19.8179 33.2009 19.8179Z" fill="white"/>
<path d="M39.695 26.355C39.8667 26.355 40.0058 26.2153 40.0058 26.0429C40.0058 25.8705 39.8667 25.7307 39.695 25.7307C39.5234 25.7307 39.3843 25.8705 39.3843 26.0429C39.3843 26.2153 39.5234 26.355 39.695 26.355Z" fill="white"/>
<path d="M0 50.9977L20.9055 22.1821C20.9055 22.1821 26.5061 38.6948 0 50.9977Z" fill="url(#paint6_linear)"/>
</g>
<defs>
<linearGradient id="paint0_linear" x1="49.1346" y1="46.205" x2="42.1194" y2="23.901" gradientUnits="userSpaceOnUse">
<stop stop-color="#E9078A"/>
<stop offset="1" stop-color="#542773"/>
</linearGradient>
<linearGradient id="paint1_linear" x1="15.2792" y1="6459.75" x2="3454.78" y2="3565.17" gradientUnits="userSpaceOnUse">
<stop stop-color="#E9078A"/>
<stop offset="1" stop-color="#542773"/>
</linearGradient>
<linearGradient id="paint2_linear" x1="2665.84" y1="9201.52" x2="721.273" y2="5797.48" gradientUnits="userSpaceOnUse">
<stop stop-color="#E9078A"/>
<stop offset="1" stop-color="#542773"/>
</linearGradient>
<linearGradient id="paint3_linear" x1="1748.91" y1="2605.55" x2="1712.68" y2="6057.94" gradientUnits="userSpaceOnUse">
<stop stop-color="#E9078A"/>
<stop offset="1" stop-color="#542773"/>
</linearGradient>
<linearGradient id="paint4_linear" x1="13728.8" y1="6455.68" x2="11332.5" y2="3427.1" gradientUnits="userSpaceOnUse">
<stop stop-color="#E9078A"/>
<stop offset="1" stop-color="#542773"/>
</linearGradient>
<linearGradient id="paint5_linear" x1="2059.1" y1="6268.75" x2="1798.47" y2="3225.38" gradientUnits="userSpaceOnUse">
<stop stop-color="#E9078A"/>
<stop offset="1" stop-color="#542773"/>
</linearGradient>
<linearGradient id="paint6_linear" x1="213.142" y1="6611.16" x2="2584.13" y2="4274.26" gradientUnits="userSpaceOnUse">
<stop stop-color="#E9078A"/>
<stop offset="1" stop-color="#542773"/>
</linearGradient>
<clipPath id="clip0">
<rect width="74" height="51" fill="white"/>
</clipPath>
</defs>
</svg>
